<svg viewBox="0 0 125 127" fill="none" xmlns="http://www.w3.org/2000/svg"><path d="M12.138 55.85v4.55l2.1.868v2.324l-9.8-4.368v-2.24l9.8-4.382v2.38l-2.1.868zm-1.722.714l-3.752 1.554 3.752 1.554v-3.108z" fill="#F4732B"/><path d="M14.31 43.783l3.341.947-.618 2.182-3.367-.954-7.096 1.934.656-2.317 4.903-1.333-3.476-3.705.607-2.142 5.05 5.388z" fill="#6F88DF"/><path d="M23.052 31.39l-2.329 3.909 1.36 1.82-1.19 1.997-6.183-8.768 1.146-1.925 10.662 1.251L25.3 31.72l-2.248-.33zm-1.845-.268l-4.019-.585 2.428 3.255 1.591-2.67z" fill="#F4732B"/><path d="M30.099 22.583l-.016 1.901 1.7 1.803-1.639 1.547-6.725-7.129 1.64-1.546 3.141 3.33.015-6.309 1.833-1.73.045 5.964 6.854 1.002-1.925 1.815-4.923-.648z" fill="#6F88DF"/><path d="M45.979 15.565l-4.04 2.094.196 2.264-2.063 1.07-.632-10.711 1.989-1.031 8.4 6.684-2.113 1.095-1.737-1.465zm-1.426-1.2l-3.107-2.616.347 4.046 2.76-1.43zM68.38 5.31l.642 9.779-2.263.148-.263-4.009-4.443.292.264 4.01-2.264.148-.642-9.78 2.263-.148.254 3.856 4.442-.292-.253-3.855 2.263-.15z" fill="#F4732B"/><path d="M79.061 18.53c-.99-.236-1.833-.663-2.53-1.28a4.964 4.964 0 01-1.446-2.202c-.265-.86-.286-1.757-.063-2.693.223-.934.646-1.721 1.269-2.36a4.93 4.93 0 012.288-1.325c.9-.236 1.846-.236 2.835 0 .99.237 1.828.662 2.516 1.277a4.93 4.93 0 011.444 2.216c.276.853.302 1.747.08 2.682-.224.935-.652 1.725-1.286 2.37a4.965 4.965 0 01-2.285 1.312c-.891.238-1.832.239-2.822.003zm.449-1.88a3.152 3.152 0 001.616-.017 2.864 2.864 0 001.322-.836c.374-.4.631-.895.772-1.485.14-.59.135-1.148-.018-1.674a2.767 2.767 0 00-.805-1.33 3.068 3.068 0 00-1.431-.758 3.067 3.067 0 00-1.62.03 2.862 2.862 0 00-1.332.82c-.365.402-.618.898-.759 1.488-.14.59-.139 1.147.005 1.671.153.526.424.975.816 1.346.393.363.871.611 1.434.745z" fill="#6F88DF"/><path d="M90.284 24.815a8.266 8.266 0 01-1.78-1.418c-.507-.552-.863-1.085-1.068-1.598l1.536-1.073c.203.48.505.947.907 1.404.401.456.85.833 1.348 1.129.553.33 1.01.493 1.37.49.365-.01.629-.152.791-.425a.7.7 0 00.053-.636 1.917 1.917 0 00-.408-.683 13.177 13.177 0 00-.828-.852c-.551-.535-.985-1-1.304-1.396a3.032 3.032 0 01-.62-1.364c-.089-.51.034-1.044.369-1.605a2.68 2.68 0 011.185-1.087c.503-.243 1.089-.324 1.756-.24.676.087 1.399.36 2.169.818a7.53 7.53 0 011.46 1.131c.437.434.776.886 1.018 1.356l-1.483 1.121c-.515-.904-1.161-1.588-1.939-2.051-.545-.325-1.002-.478-1.372-.46-.362.024-.629.18-.8.469-.173.289-.153.594.057.915.224.317.604.728 1.14 1.232.55.535.985 1 1.303 1.396.319.396.524.845.617 1.345.1.506-.016 1.04-.35 1.6a2.687 2.687 0 01-1.198 1.08c-.498.235-1.085.309-1.761.221-.676-.087-1.399-.36-2.168-.819z" fill="#F4732B"/><path d="M109.639 29.421l-6.853 7.005-1.621-1.586 2.81-2.872-3.183-3.114-2.81 2.872-1.62-1.586 6.853-7.005 1.621 1.586-2.702 2.762 3.182 3.114 2.702-2.762 1.621 1.586z" fill="#6F88DF"/><path d="M113.308 37.106l1.081 1.994-8.616 4.67-1.08-1.994 8.615-4.67z" fill="#F4732B"/><path d="M119.731 53.601l-9.226 3.305-.627-1.753 3.954-6.606-5.602 2.006-.755-2.109 9.226-3.304.632 1.766-3.958 6.593 5.601-2.007.755 2.11z" fill="#6F88DF"/><path d="M109.906 67.314c-.043-1.016.137-1.944.541-2.783a4.956 4.956 0 011.723-1.993c.754-.49 1.612-.755 2.572-.796.961-.04 1.833.151 2.617.576a4.93 4.93 0 011.9 1.838c.473.802.731 1.712.774 2.728.043 1.016-.137 1.94-.541 2.77a4.934 4.934 0 01-1.737 1.993c-.745.499-1.597.768-2.558.81-.96.04-1.837-.156-2.631-.59a4.962 4.962 0 01-1.886-1.84c-.473-.792-.731-1.696-.774-2.713zm1.931-.082c.024.578.177 1.095.458 1.55.29.455.678.803 1.165 1.044.487.25 1.034.362 1.64.336a3.224 3.224 0 001.605-.474c.465-.281.818-.66 1.059-1.138a3.08 3.08 0 00.339-1.584 3.074 3.074 0 00-.472-1.55 2.864 2.864 0 00-1.152-1.057c-.487-.241-1.033-.349-1.639-.323-.607.026-1.142.18-1.606.46a2.96 2.96 0 00-1.072 1.153 3.142 3.142 0 00-.325 1.583z" fill="#F4732B"/><path d="M117.925 80.31c-.101.378-.306.656-.614.835-.3.18-.644.22-1.031.116a2.283 2.283 0 01-.523-.212 7.153 7.153 0 01-.736-.5l-1.738-1.305.357-1.34 1.982 1.153c.159-.2.355-.335.587-.409.232-.073.488-.072.768.002.387.104.666.309.835.615.176.317.214.665.113 1.044z" fill="#6F88DF"/><path d="M104.517 85.528a8.272 8.272 0 011.139-1.968c.472-.584.946-1.015 1.423-1.294l1.289 1.36a5.21 5.21 0 00-1.255 1.105 5.618 5.618 0 00-.917 1.5c-.245.597-.339 1.072-.283 1.428.065.36.244.6.537.72a.704.704 0 00.638-.042c.214-.104.419-.272.615-.504.192-.224.433-.54.72-.946.447-.623.843-1.122 1.188-1.495a3.038 3.038 0 011.257-.816c.491-.162 1.038-.12 1.642.128a2.69 2.69 0 011.25 1.012c.315.462.481 1.029.498 1.702.013.68-.15 1.436-.49 2.265a7.556 7.556 0 01-.902 1.612 5.426 5.426 0 01-1.191 1.207l-1.328-1.3c.818-.644 1.399-1.384 1.743-2.222.24-.587.324-1.062.251-1.425-.077-.355-.271-.595-.582-.723-.311-.127-.609-.063-.896.193-.281.268-.631.704-1.051 1.31a16.029 16.029 0 01-1.187 1.494 2.988 2.988 0 01-1.239.809c-.486.174-1.03.138-1.635-.11a2.678 2.678 0 01-1.244-1.025c-.307-.458-.467-1.028-.48-1.709-.013-.681.15-1.436.49-2.266z" fill="#F4732B"/><path d="M100.275 106.91c-.596.631-1.217 1.078-1.863 1.341-.652.27-1.29.348-1.914.234-.624-.114-1.201-.42-1.73-.92-.523-.493-.863-1.051-1.02-1.674-.15-.616-.109-1.258.123-1.925.231-.653.645-1.296 1.24-1.927l1.355-1.436-1.965-1.854 1.557-1.65 7.128 6.725-2.911 3.086zm-3.733-3.695c-.467.496-.717.972-.75 1.428-.026.463.157.881.551 1.252.4.378.828.537 1.282.478.46-.053.924-.328 1.392-.823l1.268-1.344-2.474-2.335-1.269 1.344z" fill="#6F88DF"/><path d="M81.395 107.412c.874-.521 1.776-.803 2.707-.846a4.957 4.957 0 012.572.57c.79.431 1.43 1.06 1.922 1.886.492.826.737 1.684.736 2.576a4.93 4.93 0 01-.716 2.545c-.481.797-1.16 1.456-2.033 1.977-.874.521-1.772.8-2.694.839a4.925 4.925 0 01-2.58-.582c-.792-.419-1.434-1.041-1.926-1.867-.492-.826-.736-1.691-.732-2.595a4.96 4.96 0 01.724-2.533c.473-.793 1.147-1.449 2.02-1.97zm.99 1.66c-.498.296-.88.676-1.147 1.139a2.862 2.862 0 00-.365 1.521c.01.548.172 1.082.482 1.603.31.521.704.917 1.18 1.187.468.276.97.406 1.504.392a3.077 3.077 0 001.555-.454c.497-.296.877-.68 1.14-1.151.267-.464.395-.969.384-1.516-.02-.543-.184-1.075-.495-1.596-.31-.521-.7-.92-1.168-1.195a2.97 2.97 0 00-1.523-.396c-.535.014-1.05.17-1.548.466z" fill="#F4732B"/><path d="M66.06 111.678l2.471 2.217.11-.026 1.92-.458-.635-2.656 2.207-.526 2.274 9.532-4.126.985c-.844.201-1.609.235-2.293.101-.694-.132-1.27-.417-1.73-.854-.459-.437-.773-1.01-.942-1.718-.169-.708-.143-1.362.079-1.962.214-.589.602-1.094 1.164-1.516l-2.87-2.553 2.37-.566zm1.49 6.064c.127.536.397.903.81 1.102.413.208.952.233 1.615.075l1.797-.429-.793-3.323-1.797.429c-.663.158-1.132.424-1.408.797-.275.373-.35.822-.225 1.349z" fill="#6F88DF"/><path d="M56.38 119.031l3.132.145-.086 1.846-8.53-.395.085-1.846 3.133.145.368-7.944 2.265.105-.368 7.944z" fill="#F4732B"/><path d="M43.226 116.108l.725-2.486-4.355-1.27.51-1.747 4.354 1.269.999-3.427 2.177.634-2.742 9.409-7.11-2.072.51-1.748 4.932 1.438z" fill="#6F88DF"/><path d="M33.23 101.859c.882.508 1.569 1.157 2.062 1.947.484.785.738 1.626.76 2.522.01.9-.225 1.766-.705 2.599-.48.833-1.109 1.467-1.887 1.902a4.926 4.926 0 01-2.57.62c-.93-.03-1.837-.298-2.719-.806-.881-.508-1.564-1.154-2.049-1.94a4.928 4.928 0 01-.754-2.534c-.022-.896.207-1.761.686-2.594.48-.833 1.116-1.469 1.907-1.907a4.968 4.968 0 012.563-.608c.922.025 1.825.292 2.706.799zm-.964 1.675a3.147 3.147 0 00-1.554-.443 2.858 2.858 0 00-1.506.425c-.472.278-.86.679-1.162 1.205-.303.526-.456 1.062-.459 1.61-.01.543.12 1.044.395 1.503a3.06 3.06 0 001.156 1.135 3.072 3.072 0 001.561.43 2.86 2.86 0 001.51-.406c.464-.282.848-.686 1.15-1.212.303-.525.46-1.06.471-1.603a2.962 2.962 0 00-.399-1.522 3.142 3.142 0 00-1.163-1.122z" fill="#F4732B"/><path d="M19.1 101.883l-1.544-1.661 5.824-5.415-3.346-3.598 1.353-1.259 4.89 5.26-7.176 6.673z" fill="#6F88DF"/><path d="M11.214 90.62l-1.11-1.977 8.546-4.797 1.11 1.978-8.546 4.797z" fill="#F4732B"/><path d="M15.41 74.883c.36.951.481 1.888.363 2.812a4.964 4.964 0 01-1.008 2.434c-.562.702-1.293 1.224-2.192 1.565-.898.341-1.787.434-2.664.278a4.93 4.93 0 01-2.383-1.147c-.701-.613-1.232-1.395-1.593-2.346-.361-.95-.48-1.884-.359-2.799a4.93 4.93 0 011.021-2.439c.55-.707 1.275-1.232 2.173-1.573.9-.341 1.793-.43 2.683-.27.881.165 1.671.55 2.37 1.153.698.603 1.227 1.38 1.588 2.332zm-1.807.686a3.152 3.152 0 00-.923-1.327 2.863 2.863 0 00-1.435-.624c-.54-.084-1.095-.019-1.662.197-.567.215-1.025.534-1.374.956a2.767 2.767 0 00-.647 1.413 3.068 3.068 0 00.177 1.61c.205.54.517.981.936 1.322.41.343.885.557 1.426.641.538.076 1.09.006 1.658-.21.567-.215 1.027-.529 1.379-.942.349-.422.567-.9.655-1.431a3.153 3.153 0 00-.19-1.606z" fill="#6F88DF"/></svg>