<svg viewBox="0 0 800 800" fill="none" xmlns="http://www.w3.org/2000/svg"><g clip-path="url(#clip0_163_19)"><path fill="#fff" d="M0 0h800v800H0z"/><path d="M622.264 275.603c-3.922-67.737-62.206-131.493-85.078-146.493v68.739c14.239 6.761 45.412 45.413 21.974 116.631-29.299 89.023-162.218 146.493-140.296 146.493l98.613 86.28c-14.086-23.664 16.237-58.605 30.414-76.138 23.101-28.568 81.156-78.364 74.373-195.512z" fill="#3B3937" stroke="#3B3937" stroke-width="6" stroke-linecap="round" stroke-linejoin="round"/><path d="M572.682 339.271c9.015-30.989 14.65-107.053-34.933-142.549-30.425-18.593-59.724-29.862-111.56-7.325-51.836 22.538-122.265 186.497-86.206 233.263 2.059 8.091 28.736 38.313 67.049 54.089 38.314 15.777 81.114 1.698 107.616-30.989 16.903-20.847 45.42-63.127 58.034-106.489z" fill="#fff" stroke="#3B3937" stroke-width="6" stroke-linecap="round"/><path d="M334.912 161.734c49.599-45.748 114.941-71.394 200.02-33.188v67.613c-52.963-26.482-108.072 17.556-136.352 58.597-38.877 56.419-25.354 96.911-38.877 137.478-10.818 32.454-39.44 43.948-55.217 34.37L179.437 314.923c16.365 5.114 49.095 0 65.46-18.41 28.888-32.499 40.416-89.032 90.015-134.779z" fill="#3B3937" stroke="#3B3937" stroke-width="6" stroke-linecap="round" stroke-linejoin="round"/><path d="M247.864 342.184c-11.15 9.049-39.788 14.163-51.039 4.958m82.535 18.796c-10.613 14.156-41.82 18.99-60.033 9.331m93.236 17.27c-10.147 14.493-38.005 20.063-49.162 14.442" stroke="#fff" stroke-width="6" stroke-linecap="round" stroke-linejoin="round"/><circle cx="436.747" cy="323.972" r="21.791" stroke="#3B3937" stroke-width="6"/><circle cx="434.493" cy="321.718" r="10.396" fill="#3B3937" stroke="#3B3937" stroke-width="4"/><circle cx="507.116" cy="363.915" r="21.791" stroke="#3B3937" stroke-width="6"/><circle cx="504.862" cy="361.661" r="10.396" fill="#3B3937" stroke="#3B3937" stroke-width="4"/><path d="M467.957 370.181c3.336 10.042 5.44 29.742-12.838 28.204m-47.168.463c7.03 17.071 29.231 35.626 49.582 32.286m72.253-118.605c6.229 3.51 19.205 13.744 21.278 26.595m-76.222-59.132c-11.163-7.934-31.813-21.625-48.646-16.133M325.334 436.182c-3.944 27.608-34.369 75.5-59.161 75.5m158.325-22.537c-9.578 9.578-14.086 27.608-2.253 39.44" stroke="#3B3937" stroke-width="6" stroke-linecap="round"/><path d="M141.405 550.367c23.215-32.033 61.714-39.321 101.061-35.634 17.208 14.259 61.311 42.9 100.061 43.391 48.437.615 89.227-11.065 94.325-21.517 2.337 1.23 8.54 2.459 14.659 2.459 7.648 0 13.425-.905 24.218 0 29.318 2.46 60.547 35.657 82.853 74.388 31.377 54.479 69.853 151.214 92.372 228.881l-509.549 18.259c-34.791-140.081-35.62-261.075 0-310.227z" fill="#3B3937" stroke="#3B3937" stroke-width="6" stroke-linecap="round" stroke-linejoin="round"/><path d="M536.623 118.968v90.713" stroke="#fff" stroke-width="6" stroke-linecap="round"/><path d="M531.551 202.92c-26.481-3.944-43.459-3.15-68.72 26.926-25.261 30.076-24.784 50.127-43.373 63.733-13.89 10.167-25.749 7.187-34.963 4.561m156.071-90.713c38.952 46.225 36.06 161.143-10.705 177.483" stroke="#3B3937" stroke-width="6" stroke-linecap="round"/><mask id="a" style="mask-type:alpha" maskUnits="userSpaceOnUse" x="112" y="510" width="544" height="354"><path d="M141.405 550.367c23.215-32.033 61.714-39.321 101.061-35.634 17.208 14.259 61.311 42.9 100.061 43.391 48.437.615 89.227-11.065 94.325-21.517 2.337 1.23 8.54 2.459 14.659 2.459 7.648 0 13.425-.905 24.218 0 29.318 2.46 60.547 35.657 82.853 74.388 31.377 54.479 71.899 149.168 94.418 226.835l-511.595 20.305c-34.791-140.081-35.62-261.075 0-310.227z" fill="#3B3937" stroke="#3B3937" stroke-width="6" stroke-linecap="round" stroke-linejoin="round"/></mask><g mask="url(#a)" fill="#fff"><circle cx="151.734" cy="496.485" r="18.13" transform="rotate(5.994 151.734 496.485)"/><circle cx="216.645" cy="503.301" r="18.13" transform="rotate(5.994 216.645 503.301)"/><circle cx="281.558" cy="510.116" r="18.13" transform="rotate(5.994 281.558 510.116)"/><circle cx="346.471" cy="516.931" r="18.13" transform="rotate(5.994 346.471 516.931)"/><circle cx="411.383" cy="523.747" r="18.13" transform="rotate(5.994 411.383 523.747)"/><circle cx="476.295" cy="530.562" r="18.13" transform="rotate(5.994 476.295 530.562)"/><circle cx="541.207" cy="537.377" r="18.13" transform="rotate(5.994 541.207 537.377)"/><circle cx="606.118" cy="544.193" r="18.13" transform="rotate(5.994 606.118 544.193)"/><circle cx="113.184" cy="558.065" r="18.13" transform="rotate(5.994 113.184 558.065)"/><circle cx="178.096" cy="564.881" r="18.13" transform="rotate(5.994 178.096 564.881)"/><circle cx="243.009" cy="571.696" r="18.13" transform="rotate(5.994 243.009 571.696)"/><circle cx="307.922" cy="578.511" r="18.13" transform="rotate(5.994 307.922 578.511)"/><circle cx="372.833" cy="585.327" r="18.13" transform="rotate(5.994 372.833 585.327)"/><circle cx="437.744" cy="592.142" r="18.13" transform="rotate(5.994 437.744 592.142)"/><circle cx="502.658" cy="598.957" r="18.13" transform="rotate(5.994 502.658 598.957)"/><circle cx="567.569" cy="605.773" r="18.13" transform="rotate(5.994 567.569 605.773)"/><circle cx="138.103" cy="626.31" r="18.13" transform="rotate(5.994 138.103 626.31)"/><circle cx="203.014" cy="633.125" r="18.13" transform="rotate(5.994 203.014 633.125)"/><circle cx="267.928" cy="639.94" r="18.13" transform="rotate(5.994 267.928 639.94)"/><circle cx="332.84" cy="646.755" r="18.13" transform="rotate(5.994 332.84 646.755)"/><circle cx="397.752" cy="653.571" r="18.13" transform="rotate(5.994 397.752 653.571)"/><circle cx="462.664" cy="660.386" r="18.13" transform="rotate(5.994 462.664 660.386)"/><circle cx="527.576" cy="667.201" r="18.13" transform="rotate(5.994 527.576 667.201)"/><circle cx="592.488" cy="674.017" r="18.13" transform="rotate(5.994 592.488 674.017)"/><circle cx="99.555" cy="687.89" r="18.13" transform="rotate(5.994 99.555 687.89)"/><circle cx="164.467" cy="694.705" r="18.13" transform="rotate(5.994 164.467 694.705)"/><circle cx="229.379" cy="701.52" r="18.13" transform="rotate(5.994 229.379 701.52)"/><circle cx="294.291" cy="708.336" r="18.13" transform="rotate(5.994 294.291 708.336)"/><circle cx="359.203" cy="715.151" r="18.13" transform="rotate(5.994 359.203 715.151)"/><circle cx="424.115" cy="721.966" r="18.13" transform="rotate(5.994 424.115 721.966)"/><circle cx="489.028" cy="728.782" r="18.13" transform="rotate(5.994 489.028 728.782)"/><circle cx="553.939" cy="735.597" r="18.13" transform="rotate(5.994 553.939 735.597)"/><circle cx="124.472" cy="756.134" r="18.13" transform="rotate(5.994 124.472 756.134)"/><circle cx="189.384" cy="762.949" r="18.13" transform="rotate(5.994 189.384 762.949)"/><circle cx="254.297" cy="769.764" r="18.13" transform="rotate(5.994 254.297 769.764)"/><circle cx="319.209" cy="776.58" r="18.13" transform="rotate(5.994 319.209 776.58)"/><circle cx="384.121" cy="783.395" r="18.13" transform="rotate(5.994 384.121 783.395)"/><circle cx="449.034" cy="790.21" r="18.13" transform="rotate(5.994 449.034 790.21)"/><circle cx="513.946" cy="797.026" r="18.13" transform="rotate(5.994 513.946 797.026)"/><circle cx="578.857" cy="803.841" r="18.13" transform="rotate(5.994 578.857 803.841)"/><circle cx="666.783" cy="550.562" r="18.13" transform="rotate(5.994 666.783 550.562)"/><circle cx="628.234" cy="612.142" r="18.13" transform="rotate(5.994 628.234 612.142)"/><circle cx="653.153" cy="680.386" r="18.13" transform="rotate(5.994 653.153 680.386)"/><circle cx="614.602" cy="741.966" r="18.13" transform="rotate(5.994 614.602 741.966)"/><circle cx="639.521" cy="810.21" r="18.13" transform="rotate(5.994 639.521 810.21)"/></g></g><defs><clipPath id="clip0_163_19"><path fill="#fff" d="M0 0h800v800H0z"/></clipPath></defs></svg>