<svg viewBox="0 0 385 176" fill="none" xmlns="http://www.w3.org/2000/svg"><path d="M31.067 8.733L58.8 69H48.711l-8.978-19.645H14.444L5.156 69H.178l28.4-60.267h2.489zm-14.89 36.8h21.734L27.2 22.2 16.178 45.533zm56.407 34.222c.356.149.741.341 1.156.578.444.237.918.46 1.422.667a9.92 9.92 0 001.733.578 9.04 9.04 0 002.09.222c.948 0 1.836-.267 2.666-.8.83-.533 1.585-1.2 2.267-2 .681-.8 1.289-1.674 1.822-2.622.533-.948.978-1.837 1.333-2.667l3.067-6.844-23.245-43.378h10.267l17.511 32.889 14.356-32.89h4.844L90.629 77c-.978 2.222-2.104 4.148-3.378 5.778-1.244 1.63-2.578 2.978-4 4.044-1.422 1.067-2.889 1.852-4.4 2.356-1.511.533-2.978.8-4.4.8a10.01 10.01 0 01-3.111-.49c-1.008-.325-1.852-.755-2.534-1.288l3.778-8.445zM156.611 69a8.737 8.737 0 01-3.022-2.489c-.8-1.096-1.2-2.34-1.2-3.733a82.68 82.68 0 00-3.156 2.489 23.08 23.08 0 01-3.333 2.355c-1.185.682-2.519 1.245-4 1.69-1.452.444-3.141.666-5.067.666-1.777 0-3.392-.296-4.844-.89-1.422-.562-2.637-1.347-3.645-2.355-.977-1.007-1.748-2.207-2.311-3.6-.533-1.392-.8-2.889-.8-4.489 0-1.955.385-3.718 1.156-5.288a13.892 13.892 0 013.155-4.178c1.363-1.245 2.934-2.341 4.712-3.29a41.478 41.478 0 015.688-2.577 69.442 69.442 0 016.223-2.044 247.01 247.01 0 016.222-1.645v-2.844c0-2.074-.148-3.822-.445-5.245-.296-1.422-.755-2.563-1.377-3.422-.623-.889-1.423-1.511-2.4-1.867-.949-.385-2.089-.577-3.423-.577-1.274 0-2.444.252-3.511.755a9.655 9.655 0 00-2.844 2.045c-.8.83-1.467 1.822-2 2.977a13.215 13.215 0 00-1.022 3.6H127.1c.237-1.955.904-3.703 2-5.244a14.685 14.685 0 014.222-3.867c1.689-1.066 3.6-1.881 5.734-2.444 2.162-.563 4.4-.845 6.711-.845 2.963 0 5.451.297 7.466.89 2.015.562 3.63 1.362 4.845 2.4a8.452 8.452 0 012.578 3.822c.533 1.481.8 3.126.8 4.933v28.089c0 1.392.4 2.637 1.2 3.733A8.737 8.737 0 00165.678 69h-9.067zm-4.222-26.489a74.469 74.469 0 00-4.045 1.422 41.973 41.973 0 00-4.088 1.822 39.596 39.596 0 00-3.823 2.134c-1.215.77-2.281 1.6-3.2 2.489-.918.889-1.644 1.822-2.177 2.8-.534.978-.8 2-.8 3.066 0 1.126.207 2.193.622 3.2a9.579 9.579 0 001.644 2.623 8.106 8.106 0 002.356 1.777 6.444 6.444 0 002.755.623 10.33 10.33 0 002.889-.4A14.72 14.72 0 00147.189 63a30.65 30.65 0 002.578-1.6 64.767 64.767 0 002.622-1.911V42.51zm41.501-.667l22.845-18.355h5.866l-20.4 16.578L227.401 69H215.49l-21.6-24.889V69h-9.066V2.867l6.488-2.578h2.578v41.555zM268.139 69a8.746 8.746 0 01-3.022-2.489c-.8-1.096-1.2-2.34-1.2-3.733a82.68 82.68 0 00-3.156 2.489 23.08 23.08 0 01-3.333 2.355c-1.185.682-2.518 1.245-4 1.69-1.452.444-3.141.666-5.067.666-1.777 0-3.392-.296-4.844-.89-1.422-.562-2.637-1.347-3.644-2.355-.978-1.007-1.749-2.207-2.312-3.6-.533-1.392-.8-2.889-.8-4.489 0-1.955.386-3.718 1.156-5.288a13.88 13.88 0 013.156-4.178c1.362-1.245 2.933-2.341 4.711-3.29a41.437 41.437 0 015.689-2.577 69.316 69.316 0 016.222-2.044 247.01 247.01 0 016.222-1.645v-2.844c0-2.074-.148-3.822-.444-5.245-.297-1.422-.756-2.563-1.378-3.422-.622-.889-1.422-1.511-2.4-1.867-.948-.385-2.089-.577-3.422-.577-1.275 0-2.445.252-3.512.755a9.668 9.668 0 00-2.844 2.045c-.8.83-1.467 1.822-2 2.977a13.25 13.25 0 00-1.022 3.6h-8.267c.237-1.955.904-3.703 2-5.244a14.685 14.685 0 014.222-3.867c1.689-1.066 3.6-1.881 5.734-2.444 2.163-.563 4.4-.845 6.711-.845 2.963 0 5.452.297 7.466.89 2.015.562 3.63 1.362 4.845 2.4a8.452 8.452 0 012.578 3.822c.533 1.481.8 3.126.8 4.933v28.089c0 1.392.4 2.637 1.2 3.733A8.737 8.737 0 00277.206 69h-9.067zm-4.222-26.489a74.146 74.146 0 00-4.044 1.422 41.883 41.883 0 00-4.089 1.822 39.596 39.596 0 00-3.823 2.134 19.98 19.98 0 00-3.2 2.489c-.918.889-1.644 1.822-2.177 2.8-.534.978-.8 2-.8 3.066 0 1.126.207 2.193.622 3.2a9.579 9.579 0 001.644 2.623 8.106 8.106 0 002.356 1.777 6.444 6.444 0 002.755.623 10.33 10.33 0 002.889-.4A14.72 14.72 0 00258.717 63a30.65 30.65 0 002.578-1.6 64.767 64.767 0 002.622-1.911V42.51zM17.911 146.733V175H8v-58.933h9.911v26.844h29.6v-26.844h9.911V175h-9.91v-28.267h-29.6zm82.135 29.245c-3.496 0-6.71-.608-9.644-1.822-2.933-1.215-5.467-2.86-7.6-4.934a23.248 23.248 0 01-5.022-7.333c-1.185-2.815-1.778-5.822-1.778-9.022 0-3.348.593-6.489 1.778-9.423 1.215-2.963 2.889-5.54 5.022-7.733 2.133-2.192 4.667-3.911 7.6-5.155 2.933-1.275 6.148-1.912 9.644-1.912 3.467 0 6.652.578 9.556 1.734 2.933 1.155 5.467 2.741 7.6 4.755a21.438 21.438 0 014.978 7.111c1.215 2.697 1.822 5.6 1.822 8.712 0 3.437-.607 6.681-1.822 9.733-1.185 3.022-2.845 5.674-4.978 7.955-2.133 2.252-4.667 4.045-7.6 5.378-2.904 1.304-6.089 1.956-9.556 1.956zm1.734-3.334c1.778 0 3.407-.459 4.889-1.377 1.481-.919 2.755-2.148 3.822-3.689 1.067-1.571 1.896-3.378 2.489-5.422.592-2.045.889-4.208.889-6.489 0-3.289-.282-6.371-.845-9.245-.563-2.874-1.481-5.378-2.755-7.511-1.274-2.133-2.934-3.807-4.978-5.022-2.045-1.245-4.533-1.867-7.467-1.867-1.51 0-2.977.445-4.4 1.334-1.422.859-2.681 2.044-3.778 3.555-1.066 1.511-1.925 3.289-2.577 5.333-.652 2.015-.978 4.163-.978 6.445 0 3.318.34 6.43 1.022 9.333.711 2.904 1.734 5.437 3.067 7.6 1.363 2.163 3.007 3.882 4.933 5.156 1.956 1.244 4.178 1.866 6.667 1.866zm54.435.178c1.214 0 2.34-.178 3.377-.533 1.037-.385 1.926-.889 2.667-1.511.77-.622 1.363-1.334 1.778-2.134.415-.829.622-1.674.622-2.533 0-1.392-.356-2.607-1.067-3.644-.681-1.037-1.6-1.956-2.755-2.756-1.126-.83-2.415-1.585-3.867-2.267-1.452-.681-2.933-1.377-4.444-2.088a105.178 105.178 0 01-4.445-2.312 20.24 20.24 0 01-3.911-2.888 13.933 13.933 0 01-2.755-3.778c-.682-1.452-1.023-3.141-1.023-5.067 0-1.807.385-3.481 1.156-5.022a12.113 12.113 0 013.2-4.045c1.392-1.125 3.037-2 4.933-2.622 1.896-.652 3.971-.978 6.222-.978 1.512 0 2.919.104 4.223.312 1.303.207 2.577.607 3.822 1.2 1.274.592 2.533 1.451 3.778 2.577 1.244 1.097 2.563 2.534 3.955 4.311l-3.333 2.978c-1.719-2.815-3.645-4.903-5.778-6.266-2.104-1.393-4.355-2.089-6.755-2.089-1.304 0-2.489.163-3.556.489-1.067.296-1.985.725-2.756 1.288a6.414 6.414 0 00-1.777 1.912 4.742 4.742 0 00-.623 2.355c0 1.363.371 2.548 1.112 3.556.77 1.007 1.777 1.926 3.022 2.755 1.244.8 2.652 1.541 4.222 2.222 1.6.682 3.215 1.378 4.844 2.089a66.152 66.152 0 014.845 2.311c1.6.83 3.022 1.793 4.267 2.889a12.455 12.455 0 012.977 3.734c.771 1.422 1.156 3.081 1.156 4.977 0 1.926-.356 3.734-1.067 5.423-.711 1.659-1.792 3.111-3.244 4.355-1.422 1.215-3.215 2.178-5.378 2.889-2.163.711-4.711 1.067-7.644 1.067-1.334 0-2.712-.104-4.134-.311a17.839 17.839 0 01-4.222-1.2c-1.422-.623-2.844-1.482-4.267-2.578-1.422-1.096-2.815-2.533-4.177-4.311l3.688-3.334c1.097 1.541 2.149 2.86 3.156 3.956 1.007 1.067 2.03 1.956 3.067 2.667 1.066.681 2.148 1.185 3.244 1.511 1.126.296 2.341.444 3.645.444zm44.761-34.978c2.696-3.081 5.541-5.377 8.533-6.888 2.993-1.541 6.015-2.312 9.067-2.312 1.6 0 3.081.356 4.444 1.067a11.547 11.547 0 013.645 2.933c1.037 1.245 1.852 2.712 2.444 4.4.593 1.66.889 3.437.889 5.334V175h-9.022v-31.067c0-3.022-.681-5.303-2.044-6.844-1.363-1.57-3.112-2.356-5.245-2.356-.948 0-1.955.163-3.022.489a17.733 17.733 0 00-3.245 1.378 24.846 24.846 0 00-3.288 2.044 29.363 29.363 0 00-3.156 2.667V175h-9.067v-66.133l6.489-2.578h2.578v31.555zm50.507-6.622l6.356-2.578h2.622V175h-8.978v-43.778zm-.711-19.155c0-.711.133-1.378.4-2a5.207 5.207 0 012.755-2.756 5.02 5.02 0 012-.4c.712 0 1.378.133 2 .4a5.2 5.2 0 011.645 1.111 5.2 5.2 0 011.111 1.645c.267.622.4 1.289.4 2a5.02 5.02 0 01-.4 2 5.207 5.207 0 01-2.756 2.755c-.622.267-1.288.4-2 .4a5.02 5.02 0 01-2-.4 5.207 5.207 0 01-2.755-2.755 5.02 5.02 0 01-.4-2zm36.817 16.577h2.578v9.2c2.755-3.081 5.614-5.377 8.577-6.888 2.963-1.541 5.971-2.312 9.023-2.312 1.6 0 3.081.356 4.444 1.067a11.558 11.558 0 013.645 2.933c1.037 1.245 1.851 2.712 2.444 4.4.593 1.66.889 3.437.889 5.334V175h-9.022v-31.067c0-1.511-.178-2.829-.534-3.955-.355-1.156-.859-2.119-1.511-2.889a6.262 6.262 0 00-2.311-1.733c-.859-.415-1.822-.623-2.889-.623-.948 0-1.955.163-3.022.489a18.99 18.99 0 00-3.289 1.378 24.855 24.855 0 00-3.289 2.044 29.45 29.45 0 00-3.155 2.667V175H281.1v-43.822l6.489-2.534zm72.551 47.334c-3.496 0-6.711-.608-9.644-1.822-2.934-1.215-5.467-2.86-7.6-4.934a23.223 23.223 0 01-5.022-7.333c-1.186-2.815-1.778-5.822-1.778-9.022 0-3.348.592-6.489 1.778-9.423 1.214-2.963 2.888-5.54 5.022-7.733 2.133-2.192 4.666-3.911 7.6-5.155 2.933-1.275 6.148-1.912 9.644-1.912 3.467 0 6.652.578 9.556 1.734 2.933 1.155 5.466 2.741 7.6 4.755a21.453 21.453 0 014.978 7.111c1.214 2.697 1.822 5.6 1.822 8.712 0 3.437-.608 6.681-1.822 9.733-1.186 3.022-2.845 5.674-4.978 7.955-2.134 2.252-4.667 4.045-7.6 5.378-2.904 1.304-6.089 1.956-9.556 1.956zm1.734-3.334c1.777 0 3.407-.459 4.888-1.377 1.482-.919 2.756-2.148 3.823-3.689 1.066-1.571 1.896-3.378 2.489-5.422.592-2.045.888-4.208.888-6.489 0-3.289-.281-6.371-.844-9.245-.563-2.874-1.481-5.378-2.756-7.511-1.274-2.133-2.933-3.807-4.977-5.022-2.045-1.245-4.534-1.867-7.467-1.867-1.511 0-2.978.445-4.4 1.334-1.422.859-2.681 2.044-3.778 3.555-1.066 1.511-1.926 3.289-2.578 5.333-.651 2.015-.977 4.163-.977 6.445 0 3.318.34 6.43 1.022 9.333.711 2.904 1.733 5.437 3.067 7.6 1.363 2.163 3.007 3.882 4.933 5.156 1.955 1.244 4.178 1.866 6.667 1.866z" fill="#3B3937"/></svg>