<svg viewBox="0 0 34 34" fill="none" xmlns="http://www.w3.org/2000/svg">
<path d="M30.2 0.866699H3.80003C2.17937 0.866699 0.866699 2.17937 0.866699 3.80003V30.2C0.866699 31.8207 2.17937 33.1334 3.80003 33.1334H18.4667V19.9334H14.0667V15.5334H18.4667V13.1706C18.4667 8.69723 20.6462 6.73337 24.3642 6.73337C26.1447 6.73337 27.0863 6.86537 27.5322 6.9255V11.1334H24.9963C23.4182 11.1334 22.8667 11.9664 22.8667 13.6531V15.5334H27.4926L26.8648 19.9334H22.8667V33.1334H30.2C31.8207 33.1334 33.1334 31.8207 33.1334 30.2V3.80003C33.1334 2.17937 31.8192 0.866699 30.2 0.866699Z" fill="#EE864C"/>
</svg>
