<svg viewBox="0 0 125 127" fill="none" xmlns="http://www.w3.org/2000/svg">
<path d="M12.1377 55.85L12.1377 60.4L14.2377 61.268L14.2377 63.592L4.43767 59.224L4.43767 56.984L14.2377 52.602L14.2377 54.982L12.1377 55.85ZM10.4157 56.564L6.66367 58.118L10.4157 59.672L10.4157 56.564Z" fill="#EE864C"/>
<path d="M14.3106 43.7835L17.6512 44.7297L17.0331 46.9119L13.6656 45.9581L6.57014 47.8916L7.22636 45.5747L12.129 44.2424L8.65328 40.5369L9.25991 38.3952L14.3106 43.7835Z" fill="#8BA2F0"/>
<path d="M23.0519 31.3899L20.7233 35.2989L22.0832 37.1194L20.8938 39.1159L14.71 30.3478L15.8564 28.4234L26.5184 29.6743L25.3003 31.719L23.0519 31.3899ZM21.2071 31.122L17.1884 30.5369L19.6165 33.7922L21.2071 31.122Z" fill="#EE864C"/>
<path d="M30.099 22.5832L30.0833 24.4843L31.7838 26.2866L30.1444 27.8335L23.4191 20.7054L25.0585 19.1585L28.2002 22.4884L28.2153 16.1802L30.0482 14.4508L30.0927 20.4141L36.9466 21.4156L35.022 23.2314L30.099 22.5832Z" fill="#8BA2F0"/>
<path d="M45.979 15.5651L41.9394 17.659L42.1352 19.9229L40.0719 20.9924L39.44 10.2816L41.4287 9.25076L49.829 15.9348L47.716 17.03L45.979 15.5651ZM44.5526 14.3648L41.4463 11.7489L41.7933 15.7951L44.5526 14.3648Z" fill="#EE864C"/>
<path d="M68.3798 5.30986L69.0221 15.0888L66.759 15.2374L66.4956 11.2281L62.0532 11.5199L62.3166 15.5292L60.0534 15.6779L59.4111 5.89893L61.6743 5.75029L61.9275 9.60598L66.3699 9.3142L66.1167 5.45851L68.3798 5.30986Z" fill="#EE864C"/>
<path d="M79.0614 18.5297C78.0718 18.2936 77.2285 17.8668 76.5314 17.2495C75.8434 16.6343 75.3613 15.9004 75.085 15.0476C74.82 14.188 74.799 13.2906 75.0221 12.3555C75.2453 11.4205 75.6681 10.6338 76.2906 9.99549C76.9243 9.35029 77.687 8.90859 78.5786 8.67037C79.4793 8.43432 80.4245 8.43436 81.414 8.67049C82.4036 8.90662 83.2423 9.33226 83.9304 9.94742C84.6184 10.5626 85.0994 11.3011 85.3735 12.1629C85.6498 13.0156 85.6764 13.9096 85.4533 14.8446C85.2301 15.7797 84.8017 16.5699 84.168 17.2151C83.5364 17.8512 82.7748 18.2883 81.8832 18.5266C80.9915 18.7648 80.0509 18.7658 79.0614 18.5297ZM79.5098 16.6504C80.0727 16.7848 80.6114 16.779 81.126 16.6331C81.6427 16.4781 82.0834 16.1995 82.4481 15.7971C82.8219 15.397 83.0792 14.9018 83.22 14.3117C83.3608 13.7216 83.3548 13.1637 83.202 12.6378C83.0583 12.1142 82.7898 11.6711 82.3965 11.3086C82.0054 10.937 81.5284 10.684 80.9656 10.5497C80.4027 10.4154 79.8629 10.4257 79.3462 10.5807C78.8316 10.7266 78.3874 10.9996 78.0137 11.3998C77.649 11.8021 77.3962 12.2983 77.2554 12.8884C77.1146 13.4785 77.1161 14.0354 77.2598 14.5591C77.4126 15.0849 77.6845 15.5336 78.0756 15.9052C78.4689 16.2677 78.947 16.5161 79.5098 16.6504Z" fill="#8BA2F0"/>
<path d="M90.2835 24.8153C89.618 24.4188 89.0251 23.9461 88.5047 23.3971C87.9972 22.8449 87.6409 22.3122 87.436 21.799L88.9717 20.7258C89.1749 21.2053 89.4773 21.6734 89.8789 22.1299C90.2805 22.5864 90.7299 22.9627 91.227 23.2589C91.7803 23.5885 92.237 23.7519 92.5971 23.7492C92.962 23.7384 93.2257 23.5967 93.3881 23.3241C93.5075 23.1236 93.5253 22.9115 93.4413 22.6877C93.3702 22.4606 93.2342 22.2329 93.0334 22.0047C92.8406 21.7812 92.5644 21.4971 92.2048 21.1525C91.654 20.6181 91.2196 20.1528 90.9014 19.7569C90.5832 19.3609 90.3761 18.9062 90.2801 18.3927C90.192 17.8839 90.3152 17.3489 90.6496 16.7876C90.9409 16.2985 91.3359 15.9363 91.8346 15.701C92.3381 15.4578 92.9236 15.3775 93.5914 15.4602C94.2671 15.5477 94.9899 15.8207 95.7597 16.2793C96.2969 16.5993 96.7839 16.9764 97.2206 17.4104C97.6574 17.8444 97.9965 18.2963 98.2381 18.7661L96.7554 19.8873C96.2404 18.9829 95.594 18.2991 94.8162 17.8357C94.2709 17.5109 93.8135 17.3579 93.4438 17.3767C93.0821 17.4002 92.8153 17.5563 92.6433 17.845C92.4713 18.1336 92.4907 18.4385 92.7014 18.7596C92.9249 19.0774 93.3048 19.4884 93.841 19.9925C94.3917 20.527 94.8261 20.9922 95.1443 21.3882C95.4625 21.7841 95.668 22.2325 95.7608 22.7332C95.8616 23.2387 95.7449 23.7721 95.4105 24.3333C95.1239 24.8144 94.7249 25.1742 94.2134 25.4128C93.7148 25.648 93.1276 25.7219 92.4518 25.6344C91.776 25.5469 91.0533 25.2739 90.2835 24.8153Z" fill="#EE864C"/>
<path d="M109.639 29.4212L102.786 36.426L101.165 34.8398L103.975 31.9679L100.792 28.8543L97.9824 31.7263L96.3613 30.1401L103.215 23.1354L104.836 24.7215L102.134 27.4834L105.316 30.5969L108.018 27.8351L109.639 29.4212Z" fill="#8BA2F0"/>
<path d="M113.308 37.106L114.389 39.0999L105.773 43.7699L104.693 41.776L113.308 37.106Z" fill="#EE864C"/>
<path d="M119.731 53.6012L110.505 56.9058L109.878 55.1528L113.832 48.5466L108.23 50.553L107.475 48.4442L116.701 45.1396L117.333 46.9057L113.375 53.4987L118.976 51.4924L119.731 53.6012Z" fill="#8BA2F0"/>
<path d="M109.906 67.3142C109.863 66.2978 110.043 65.37 110.447 64.5308C110.85 63.7009 111.425 63.0366 112.17 62.5379C112.924 62.0481 113.782 61.7828 114.742 61.742C115.703 61.7012 116.575 61.893 117.359 62.3175C118.153 62.7508 118.786 63.3638 119.259 64.1565C119.732 64.9585 119.99 65.8677 120.033 66.8841C120.076 67.9005 119.896 68.8237 119.492 69.6535C119.088 70.4834 118.509 71.1479 117.755 71.6471C117.01 72.1458 116.158 72.4155 115.197 72.4563C114.237 72.4971 113.36 72.3008 112.566 71.8675C111.781 71.4337 111.153 70.8205 110.68 70.0278C110.207 69.2352 109.949 68.3307 109.906 67.3142ZM111.837 67.2323C111.861 67.8104 112.014 68.327 112.295 68.7822C112.585 69.237 112.973 69.5848 113.46 69.8257C113.947 70.0759 114.494 70.1881 115.1 70.1624C115.706 70.1367 116.241 69.9785 116.705 69.6879C117.17 69.4066 117.523 69.0272 117.764 68.5499C118.014 68.0722 118.127 67.5442 118.103 66.9661C118.078 66.3879 117.921 65.8715 117.631 65.4167C117.35 64.9616 116.966 64.6089 116.479 64.3587C115.992 64.1178 115.446 64.0102 114.84 64.0359C114.233 64.0617 113.698 64.2152 113.234 64.4965C112.77 64.7871 112.412 65.1713 112.162 65.649C111.92 66.1264 111.812 66.6541 111.837 67.2323Z" fill="#EE864C"/>
<path d="M117.925 80.3091C117.824 80.6879 117.619 80.9665 117.311 81.145C117.011 81.3259 116.667 81.3645 116.28 81.261C116.099 81.2129 115.925 81.1422 115.757 81.049C115.588 80.9558 115.343 80.7889 115.021 80.5483L113.283 79.2439L113.64 77.9047L115.622 79.0568C115.781 78.8579 115.977 78.7217 116.209 78.6485C116.441 78.5752 116.697 78.5758 116.977 78.6504C117.364 78.7539 117.643 78.9587 117.812 79.2648C117.988 79.5823 118.026 79.9304 117.925 80.3091Z" fill="#8BA2F0"/>
<path d="M104.517 85.5285C104.811 84.8117 105.19 84.1554 105.656 83.5596C106.128 82.976 106.602 82.545 107.079 82.2665L108.368 83.6267C107.923 83.8985 107.505 84.2668 107.113 84.7314C106.721 85.1961 106.415 85.6961 106.196 86.2316C105.951 86.8275 105.857 87.3033 105.913 87.6591C105.978 88.0184 106.157 88.2583 106.45 88.3786C106.666 88.4671 106.879 88.4533 107.088 88.3372C107.302 88.2333 107.507 88.0651 107.703 87.8328C107.895 87.6091 108.136 87.2939 108.423 86.8873C108.87 86.2637 109.266 85.7652 109.611 85.392C109.956 85.0188 110.375 84.7468 110.868 84.5759C111.359 84.4136 111.906 84.4564 112.51 84.7041C113.037 84.92 113.454 85.2572 113.76 85.7156C114.075 86.1776 114.241 86.7448 114.258 87.4175C114.271 88.0987 114.108 88.8539 113.768 89.683C113.531 90.2616 113.23 90.799 112.866 91.2951C112.501 91.7912 112.104 92.1934 111.675 92.5018L110.347 91.2011C111.165 90.558 111.746 89.8176 112.09 88.9799C112.33 88.3926 112.414 87.9176 112.341 87.5547C112.264 87.2005 112.07 86.9597 111.759 86.8323C111.448 86.7048 111.15 86.7691 110.863 87.0249C110.582 87.2929 110.232 87.7293 109.812 88.3341C109.365 88.9578 108.969 89.4562 108.625 89.8294C108.28 90.2026 107.867 90.4721 107.386 90.6379C106.9 90.8124 106.356 90.7757 105.751 90.528C105.233 90.3156 104.818 89.9741 104.507 89.5035C104.2 89.0451 104.04 88.4753 104.027 87.794C104.014 87.1127 104.177 86.3576 104.517 85.5285Z" fill="#EE864C"/>
<path d="M100.275 106.91C99.679 107.541 99.0581 107.988 98.4121 108.251C97.7597 108.521 97.1216 108.599 96.4976 108.485C95.8737 108.371 95.297 108.065 94.7674 107.565C94.2447 107.072 93.905 106.514 93.7482 105.891C93.5983 105.275 93.639 104.633 93.8705 103.966C94.1024 103.313 94.5162 102.67 95.1119 102.039L96.4665 100.603L94.5012 98.7486L96.0576 97.099L103.186 103.824L100.275 106.91ZM96.5425 103.215C96.0749 103.711 95.8247 104.187 95.7917 104.643C95.7656 105.106 95.9493 105.524 96.3431 105.895C96.7436 106.273 97.1708 106.432 97.6247 106.373C98.0853 106.32 98.5494 106.045 99.017 105.55L100.285 104.206L97.8107 101.871L96.5425 103.215Z" fill="#8BA2F0"/>
<path d="M81.3955 107.412C82.2695 106.891 83.1715 106.609 84.1017 106.566C85.0238 106.527 85.8811 106.717 86.6737 107.136C87.4631 107.567 88.1038 108.196 88.5958 109.022C89.0878 109.848 89.3332 110.706 89.3319 111.598C89.3275 112.502 89.0887 113.351 88.6156 114.143C88.1345 114.94 87.4569 115.599 86.5829 116.12C85.7089 116.641 84.8109 116.92 83.8888 116.959C82.9667 116.998 82.1069 116.804 81.3096 116.377C80.5169 115.958 79.8746 115.336 79.3826 114.51C78.8906 113.684 78.6469 112.819 78.6513 111.915C78.6606 111.018 78.9017 110.174 79.3748 109.382C79.8479 108.589 80.5215 107.933 81.3955 107.412ZM82.3842 109.072C81.8871 109.368 81.5049 109.748 81.2378 110.211C80.9754 110.682 80.8537 111.189 80.8728 111.732C80.8839 112.28 81.0447 112.814 81.3552 113.335C81.6657 113.856 82.059 114.252 82.5351 114.522C83.0032 114.798 83.5046 114.928 84.0393 114.914C84.5787 114.907 85.097 114.756 85.5942 114.46C86.0913 114.164 86.4711 113.78 86.7335 113.309C87.0006 112.845 87.1287 112.34 87.1176 111.793C87.0985 111.25 86.9337 110.718 86.6232 110.197C86.3128 109.676 85.9235 109.277 85.4553 109.002C84.9792 108.732 84.4714 108.6 83.9319 108.606C83.3973 108.62 82.8814 108.776 82.3842 109.072Z" fill="#EE864C"/>
<path d="M66.0591 111.678L68.5311 113.895L68.6401 113.869L70.5602 113.411L69.9265 110.755L72.1326 110.229L74.4072 119.761L70.2811 120.746C69.4368 120.947 68.6724 120.981 67.9879 120.847C67.2943 120.715 66.7178 120.43 66.2585 119.993C65.7991 119.556 65.4849 118.983 65.3159 118.275C65.147 117.567 65.1732 116.913 65.3947 116.313C65.6093 115.724 65.9973 115.219 66.5587 114.797L63.6896 112.244L66.0591 111.678ZM67.5492 117.742C67.677 118.278 67.947 118.645 68.3591 118.844C68.7735 119.052 69.312 119.077 69.9747 118.919L71.7722 118.49L70.9794 115.167L69.1818 115.596C68.5191 115.754 68.0499 116.02 67.7742 116.393C67.4986 116.766 67.4236 117.215 67.5492 117.742Z" fill="#8BA2F0"/>
<path d="M56.3792 119.031L59.5119 119.176L59.4263 121.022L50.8955 120.627L50.981 118.781L54.1137 118.926L54.4818 110.982L56.7473 111.087L56.3792 119.031Z" fill="#EE864C"/>
<path d="M43.2262 116.108L43.9509 113.622L39.5961 112.352L40.1053 110.605L44.4601 111.874L45.459 108.447L47.6364 109.081L44.8944 118.49L37.7842 116.418L38.2934 114.67L43.2262 116.108Z" fill="#8BA2F0"/>
<path d="M33.2301 101.859C34.1117 102.367 34.7989 103.016 35.2917 103.806C35.7764 104.591 36.0299 105.432 36.0524 106.328C36.0621 107.228 35.827 108.094 35.3472 108.927C34.8674 109.76 34.2384 110.394 33.4602 110.829C32.6691 111.268 31.8124 111.474 30.8898 111.449C29.9591 111.419 29.053 111.151 28.1714 110.643C27.2898 110.135 26.6067 109.489 26.122 108.703C25.6373 107.918 25.386 107.073 25.3683 106.169C25.3458 105.273 25.5745 104.408 26.0543 103.575C26.5341 102.742 27.1695 102.106 27.9605 101.668C28.7468 101.238 29.6013 101.035 30.5239 101.06C31.4464 101.085 32.3485 101.352 33.2301 101.859ZM32.2659 103.534C31.7644 103.245 31.2463 103.097 30.7115 103.091C30.172 103.092 29.6702 103.234 29.2062 103.516C28.7341 103.794 28.3467 104.195 28.0439 104.721C27.7411 105.247 27.5882 105.783 27.5852 106.331C27.5741 106.874 27.7055 107.375 27.9795 107.834C28.2488 108.302 28.6342 108.68 29.1356 108.969C29.6371 109.257 30.1576 109.401 30.697 109.399C31.2318 109.406 31.7353 109.27 32.2074 108.993C32.6714 108.711 33.0548 108.307 33.3576 107.781C33.6604 107.256 33.8173 106.721 33.8284 106.178C33.8314 105.631 33.6983 105.123 33.429 104.656C33.155 104.196 32.7673 103.822 32.2659 103.534Z" fill="#EE864C"/>
<path d="M19.1006 101.883L17.5562 100.222L23.3797 94.8074L20.0335 91.2087L21.3868 89.9503L26.2774 95.2099L19.1006 101.883Z" fill="#8BA2F0"/>
<path d="M11.2145 90.6207L10.1044 88.643L18.6503 83.8462L19.7604 85.824L11.2145 90.6207Z" fill="#EE864C"/>
<path d="M15.4091 74.8829C15.7701 75.8341 15.8912 76.7714 15.7725 77.695C15.6505 78.6098 15.3145 79.4211 14.7646 80.129C14.2026 80.8314 13.4722 81.3532 12.5734 81.6943C11.6746 82.0354 10.7863 82.1279 9.90851 81.9719C9.01867 81.8105 8.22463 81.428 7.52639 80.8245C6.82484 80.2122 6.29359 79.4305 5.93262 78.4794C5.57165 77.5282 5.45218 76.5953 5.57419 75.6804C5.6962 74.7656 6.03655 73.9526 6.59523 73.2415C7.14519 72.5336 7.86956 72.0091 8.76835 71.668C9.66713 71.3269 10.5614 71.2371 11.4513 71.3985C12.3324 71.5633 13.1221 71.9474 13.8203 72.551C14.5186 73.1545 15.0482 73.9318 15.4091 74.8829ZM13.6028 75.5685C13.3975 75.0274 13.0899 74.5851 12.68 74.2416C12.2613 73.9013 11.7832 73.6934 11.2454 73.618C10.7043 73.5338 10.1502 73.5994 9.58301 73.8146C9.01581 74.0299 8.55772 74.3485 8.20873 74.7705C7.85642 75.1837 7.6409 75.6548 7.56215 76.1838C7.47467 76.7162 7.5336 77.2528 7.73892 77.7939C7.94424 78.3349 8.25622 78.7755 8.67485 79.1158C9.08476 79.4594 9.56025 79.6732 10.1013 79.7574C10.6391 79.8328 11.1915 79.7629 11.7587 79.5477C12.3259 79.3324 12.7857 79.0182 13.138 78.605C13.487 78.183 13.7052 77.7059 13.7927 77.1735C13.8714 76.6445 13.8082 76.1095 13.6028 75.5685Z" fill="#8BA2F0"/>
</svg>
