<svg viewBox="0 0 379 171" fill="none" xmlns="http://www.w3.org/2000/svg">
<path d="M132.426 3.73333L160.159 64H150.07L141.093 44.3555H115.804L106.515 64H101.537L129.937 3.73333H132.426ZM117.537 40.5333H139.27L128.559 17.2L117.537 40.5333Z" fill="#4F4F4F"/>
<path d="M173.944 74.7555C174.299 74.9037 174.684 75.0963 175.099 75.3333C175.544 75.5704 176.018 75.7926 176.521 76C177.055 76.237 177.633 76.4296 178.255 76.5778C178.877 76.7259 179.573 76.8 180.344 76.8C181.292 76.8 182.181 76.5333 183.01 76C183.84 75.4667 184.596 74.8 185.277 74C185.958 73.2 186.566 72.3259 187.099 71.3778C187.633 70.4296 188.077 69.5407 188.433 68.7111L191.499 61.8667L168.255 18.4889H178.521L196.033 51.3778L210.388 18.4889H215.233L191.988 72C191.01 74.2222 189.884 76.1481 188.61 77.7778C187.366 79.4074 186.033 80.7556 184.61 81.8222C183.188 82.8889 181.721 83.6741 180.21 84.1778C178.699 84.7111 177.233 84.9778 175.81 84.9778C174.744 84.9778 173.707 84.8148 172.699 84.4889C171.692 84.163 170.847 83.7333 170.166 83.2L173.944 74.7555Z" fill="#4F4F4F"/>
<path d="M257.97 64C256.785 63.4074 255.778 62.5778 254.948 61.5111C254.148 60.4148 253.748 59.1704 253.748 57.7778C252.682 58.5778 251.63 59.4074 250.593 60.2667C249.585 61.1259 248.474 61.9111 247.259 62.6222C246.074 63.3037 244.741 63.8667 243.259 64.3111C241.807 64.7555 240.119 64.9778 238.193 64.9778C236.415 64.9778 234.8 64.6815 233.348 64.0889C231.926 63.5259 230.711 62.7407 229.704 61.7333C228.726 60.7259 227.956 59.5259 227.393 58.1333C226.859 56.7407 226.593 55.2444 226.593 53.6444C226.593 51.6889 226.978 49.9259 227.748 48.3555C228.519 46.7852 229.57 45.3926 230.904 44.1778C232.267 42.9333 233.837 41.837 235.615 40.8889C237.393 39.9111 239.289 39.0518 241.304 38.3111C243.319 37.5407 245.393 36.8593 247.526 36.2667C249.659 35.6741 251.733 35.1259 253.748 34.6222V31.7778C253.748 29.7037 253.6 27.9555 253.304 26.5333C253.007 25.1111 252.548 23.9704 251.926 23.1111C251.304 22.2222 250.504 21.6 249.526 21.2444C248.578 20.8593 247.437 20.6667 246.104 20.6667C244.83 20.6667 243.659 20.9185 242.593 21.4222C241.526 21.9259 240.578 22.6074 239.748 23.4667C238.948 24.2963 238.282 25.2889 237.748 26.4444C237.244 27.5704 236.904 28.7704 236.726 30.0444H228.459C228.696 28.0889 229.363 26.3407 230.459 24.8C231.585 23.2593 232.993 21.9704 234.682 20.9333C236.37 19.8667 238.282 19.0518 240.415 18.4889C242.578 17.9259 244.815 17.6444 247.126 17.6444C250.089 17.6444 252.578 17.9407 254.593 18.5333C256.607 19.0963 258.222 19.8963 259.437 20.9333C260.652 21.9704 261.511 23.2444 262.015 24.7555C262.548 26.237 262.815 27.8815 262.815 29.6889V57.7778C262.815 59.1704 263.215 60.4148 264.015 61.5111C264.844 62.5778 265.852 63.4074 267.037 64H257.97ZM253.748 37.5111C252.444 37.9259 251.096 38.4 249.704 38.9333C248.311 39.4667 246.948 40.0741 245.615 40.7555C244.282 41.4074 243.007 42.1185 241.793 42.8889C240.578 43.6593 239.511 44.4889 238.593 45.3778C237.674 46.2667 236.948 47.2 236.415 48.1778C235.882 49.1556 235.615 50.1778 235.615 51.2444C235.615 52.3704 235.822 53.437 236.237 54.4444C236.652 55.4222 237.2 56.2963 237.882 57.0667C238.563 57.8074 239.348 58.4 240.237 58.8444C241.126 59.2593 242.044 59.4667 242.993 59.4667C244 59.4667 244.963 59.3333 245.882 59.0667C246.8 58.8 247.689 58.4444 248.548 58C249.407 57.5259 250.267 56.9926 251.126 56.4C251.985 55.8074 252.859 55.1704 253.748 54.4889V37.5111Z" fill="#4F4F4F"/>
<path d="M295.25 36.8444L318.094 18.4889H323.961L303.561 35.0667L328.761 64H316.85L295.25 39.1111V64H286.183V-2.13334L292.672 -4.71112H295.25V36.8444Z" fill="#4F4F4F"/>
<path d="M369.499 64C368.313 63.4074 367.306 62.5778 366.476 61.5111C365.676 60.4148 365.276 59.1704 365.276 57.7778C364.21 58.5778 363.158 59.4074 362.121 60.2667C361.113 61.1259 360.002 61.9111 358.787 62.6222C357.602 63.3037 356.269 63.8667 354.787 64.3111C353.336 64.7555 351.647 64.9778 349.721 64.9778C347.943 64.9778 346.328 64.6815 344.876 64.0889C343.454 63.5259 342.239 62.7407 341.232 61.7333C340.254 60.7259 339.484 59.5259 338.921 58.1333C338.387 56.7407 338.121 55.2444 338.121 53.6444C338.121 51.6889 338.506 49.9259 339.276 48.3555C340.047 46.7852 341.099 45.3926 342.432 44.1778C343.795 42.9333 345.365 41.837 347.143 40.8889C348.921 39.9111 350.817 39.0518 352.832 38.3111C354.847 37.5407 356.921 36.8593 359.054 36.2667C361.187 35.6741 363.261 35.1259 365.276 34.6222V31.7778C365.276 29.7037 365.128 27.9555 364.832 26.5333C364.536 25.1111 364.076 23.9704 363.454 23.1111C362.832 22.2222 362.032 21.6 361.054 21.2444C360.106 20.8593 358.965 20.6667 357.632 20.6667C356.358 20.6667 355.187 20.9185 354.121 21.4222C353.054 21.9259 352.106 22.6074 351.276 23.4667C350.476 24.2963 349.81 25.2889 349.276 26.4444C348.773 27.5704 348.432 28.7704 348.254 30.0444H339.987C340.224 28.0889 340.891 26.3407 341.987 24.8C343.113 23.2593 344.521 21.9704 346.21 20.9333C347.899 19.8667 349.81 19.0518 351.943 18.4889C354.106 17.9259 356.343 17.6444 358.654 17.6444C361.617 17.6444 364.106 17.9407 366.121 18.5333C368.136 19.0963 369.75 19.8963 370.965 20.9333C372.18 21.9704 373.039 23.2444 373.543 24.7555C374.076 26.237 374.343 27.8815 374.343 29.6889V57.7778C374.343 59.1704 374.743 60.4148 375.543 61.5111C376.373 62.5778 377.38 63.4074 378.565 64H369.499ZM365.276 37.5111C363.973 37.9259 362.624 38.4 361.232 38.9333C359.839 39.4667 358.476 40.0741 357.143 40.7555C355.81 41.4074 354.536 42.1185 353.321 42.8889C352.106 43.6593 351.039 44.4889 350.121 45.3778C349.202 46.2667 348.476 47.2 347.943 48.1778C347.41 49.1556 347.143 50.1778 347.143 51.2444C347.143 52.3704 347.35 53.437 347.765 54.4444C348.18 55.4222 348.728 56.2963 349.41 57.0667C350.091 57.8074 350.876 58.4 351.765 58.8444C352.654 59.2593 353.573 59.4667 354.521 59.4667C355.528 59.4667 356.491 59.3333 357.41 59.0667C358.328 58.8 359.217 58.4444 360.076 58C360.936 57.5259 361.795 56.9926 362.654 56.4C363.513 55.8074 364.387 55.1704 365.276 54.4889V37.5111Z" fill="#4F4F4F"/>
<path d="M9.93601 141.733V170H0.0249023V111.067H9.93601V137.911H39.536V111.067H49.4471V170H39.536V141.733H9.93601Z" fill="#4F4F4F"/>
<path d="M92.0714 170.978C88.5751 170.978 85.3603 170.37 82.427 169.156C79.4937 167.941 76.9603 166.296 74.827 164.222C72.6937 162.119 71.0196 159.674 69.8048 156.889C68.6196 154.074 68.027 151.067 68.027 147.867C68.027 144.519 68.6196 141.378 69.8048 138.444C71.0196 135.481 72.6937 132.904 74.827 130.711C76.9603 128.519 79.4937 126.8 82.427 125.556C85.3603 124.281 88.5751 123.644 92.0714 123.644C95.5381 123.644 98.7233 124.222 101.627 125.378C104.56 126.533 107.094 128.119 109.227 130.133C111.36 132.148 113.02 134.519 114.205 137.244C115.42 139.941 116.027 142.844 116.027 145.956C116.027 149.393 115.42 152.637 114.205 155.689C113.02 158.711 111.36 161.363 109.227 163.644C107.094 165.896 104.56 167.689 101.627 169.022C98.7233 170.326 95.5381 170.978 92.0714 170.978ZM93.8048 167.644C95.5825 167.644 97.2122 167.185 98.6936 166.267C100.175 165.348 101.449 164.119 102.516 162.578C103.583 161.007 104.412 159.2 105.005 157.156C105.597 155.111 105.894 152.948 105.894 150.667C105.894 147.378 105.612 144.296 105.049 141.422C104.486 138.548 103.568 136.044 102.294 133.911C101.02 131.778 99.3603 130.104 97.3159 128.889C95.2714 127.644 92.7825 127.022 89.8492 127.022C88.3381 127.022 86.8714 127.467 85.4492 128.356C84.027 129.215 82.7677 130.4 81.6714 131.911C80.6048 133.422 79.7455 135.2 79.0937 137.244C78.4418 139.259 78.1159 141.407 78.1159 143.689C78.1159 147.007 78.4566 150.119 79.1381 153.022C79.8492 155.926 80.8714 158.459 82.2048 160.622C83.5677 162.785 85.2122 164.504 87.1381 165.778C89.0936 167.022 91.3159 167.644 93.8048 167.644Z" fill="#4F4F4F"/>
<path d="M148.239 167.822C149.454 167.822 150.58 167.644 151.617 167.289C152.654 166.904 153.543 166.4 154.284 165.778C155.054 165.156 155.647 164.444 156.062 163.644C156.477 162.815 156.684 161.97 156.684 161.111C156.684 159.719 156.328 158.504 155.617 157.467C154.936 156.43 154.017 155.511 152.862 154.711C151.736 153.881 150.447 153.126 148.995 152.444C147.543 151.763 146.062 151.067 144.551 150.356C143.039 149.615 141.558 148.844 140.106 148.044C138.654 147.215 137.351 146.252 136.195 145.156C135.069 144.059 134.151 142.8 133.439 141.378C132.758 139.926 132.417 138.237 132.417 136.311C132.417 134.504 132.802 132.83 133.573 131.289C134.343 129.719 135.41 128.37 136.773 127.244C138.165 126.119 139.81 125.244 141.706 124.622C143.602 123.97 145.677 123.644 147.928 123.644C149.439 123.644 150.847 123.748 152.151 123.956C153.454 124.163 154.728 124.563 155.973 125.156C157.247 125.748 158.506 126.607 159.751 127.733C160.995 128.83 162.314 130.267 163.706 132.044L160.373 135.022C158.654 132.207 156.728 130.119 154.595 128.756C152.491 127.363 150.239 126.667 147.839 126.667C146.536 126.667 145.351 126.83 144.284 127.156C143.217 127.452 142.299 127.881 141.528 128.444C140.788 128.978 140.195 129.615 139.751 130.356C139.336 131.096 139.128 131.881 139.128 132.711C139.128 134.074 139.499 135.259 140.239 136.267C141.01 137.274 142.017 138.193 143.262 139.022C144.506 139.822 145.914 140.563 147.484 141.244C149.084 141.926 150.699 142.622 152.328 143.333C153.988 144.044 155.602 144.815 157.173 145.644C158.773 146.474 160.195 147.437 161.439 148.533C162.684 149.6 163.677 150.844 164.417 152.267C165.188 153.689 165.573 155.348 165.573 157.244C165.573 159.17 165.217 160.978 164.506 162.667C163.795 164.326 162.714 165.778 161.262 167.022C159.839 168.237 158.047 169.2 155.884 169.911C153.721 170.622 151.173 170.978 148.239 170.978C146.906 170.978 145.528 170.874 144.106 170.667C142.714 170.459 141.306 170.059 139.884 169.467C138.462 168.844 137.039 167.985 135.617 166.889C134.195 165.793 132.802 164.356 131.439 162.578L135.128 159.244C136.225 160.785 137.277 162.104 138.284 163.2C139.291 164.267 140.314 165.156 141.351 165.867C142.417 166.548 143.499 167.052 144.595 167.378C145.721 167.674 146.936 167.822 148.239 167.822Z" fill="#4F4F4F"/>
<path d="M193.001 132.844C195.697 129.763 198.542 127.467 201.534 125.956C204.527 124.415 207.549 123.644 210.601 123.644C212.201 123.644 213.682 124 215.045 124.711C216.438 125.422 217.653 126.4 218.69 127.644C219.727 128.889 220.542 130.356 221.134 132.044C221.727 133.704 222.023 135.481 222.023 137.378V170H213.001V138.933C213.001 135.911 212.319 133.63 210.956 132.089C209.594 130.519 207.845 129.733 205.712 129.733C204.764 129.733 203.757 129.896 202.69 130.222C201.623 130.548 200.542 131.007 199.445 131.6C198.349 132.163 197.253 132.844 196.157 133.644C195.06 134.444 194.008 135.333 193.001 136.311V170H183.934V103.867L190.423 101.289H193.001V132.844Z" fill="#4F4F4F"/>
<path d="M243.508 126.222L249.863 123.644H252.486V170H243.508V126.222ZM242.797 107.067C242.797 106.356 242.93 105.689 243.197 105.067C243.463 104.444 243.834 103.896 244.308 103.422C244.782 102.948 245.33 102.578 245.952 102.311C246.575 102.044 247.241 101.911 247.952 101.911C248.663 101.911 249.33 102.044 249.952 102.311C250.575 102.578 251.123 102.948 251.597 103.422C252.071 103.896 252.441 104.444 252.708 105.067C252.975 105.689 253.108 106.356 253.108 107.067C253.108 107.778 252.975 108.444 252.708 109.067C252.441 109.689 252.071 110.237 251.597 110.711C251.123 111.185 250.575 111.556 249.952 111.822C249.33 112.089 248.663 112.222 247.952 112.222C247.241 112.222 246.575 112.089 245.952 111.822C245.33 111.556 244.782 111.185 244.308 110.711C243.834 110.237 243.463 109.689 243.197 109.067C242.93 108.444 242.797 107.778 242.797 107.067Z" fill="#4F4F4F"/>
<path d="M279.614 123.644H282.192V132.844C284.947 129.763 287.806 127.467 290.769 125.956C293.732 124.415 296.74 123.644 299.792 123.644C301.392 123.644 302.873 124 304.236 124.711C305.629 125.422 306.843 126.4 307.88 127.644C308.918 128.889 309.732 130.356 310.325 132.044C310.918 133.704 311.214 135.481 311.214 137.378V170H302.192V138.933C302.192 137.422 302.014 136.104 301.658 134.978C301.303 133.822 300.799 132.859 300.147 132.089C299.495 131.319 298.725 130.741 297.836 130.356C296.977 129.941 296.014 129.733 294.947 129.733C293.999 129.733 292.992 129.896 291.925 130.222C290.858 130.548 289.762 131.007 288.636 131.6C287.54 132.163 286.443 132.844 285.347 133.644C284.251 134.444 283.199 135.333 282.192 136.311V170H273.125V126.178L279.614 123.644Z" fill="#4F4F4F"/>
<path d="M352.165 170.978C348.669 170.978 345.454 170.37 342.521 169.156C339.587 167.941 337.054 166.296 334.921 164.222C332.787 162.119 331.113 159.674 329.899 156.889C328.713 154.074 328.121 151.067 328.121 147.867C328.121 144.519 328.713 141.378 329.899 138.444C331.113 135.481 332.787 132.904 334.921 130.711C337.054 128.519 339.587 126.8 342.521 125.556C345.454 124.281 348.669 123.644 352.165 123.644C355.632 123.644 358.817 124.222 361.721 125.378C364.654 126.533 367.187 128.119 369.321 130.133C371.454 132.148 373.113 134.519 374.299 137.244C375.513 139.941 376.121 142.844 376.121 145.956C376.121 149.393 375.513 152.637 374.299 155.689C373.113 158.711 371.454 161.363 369.321 163.644C367.187 165.896 364.654 167.689 361.721 169.022C358.817 170.326 355.632 170.978 352.165 170.978ZM353.899 167.644C355.676 167.644 357.306 167.185 358.787 166.267C360.269 165.348 361.543 164.119 362.61 162.578C363.676 161.007 364.506 159.2 365.099 157.156C365.691 155.111 365.987 152.948 365.987 150.667C365.987 147.378 365.706 144.296 365.143 141.422C364.58 138.548 363.661 136.044 362.387 133.911C361.113 131.778 359.454 130.104 357.41 128.889C355.365 127.644 352.876 127.022 349.943 127.022C348.432 127.022 346.965 127.467 345.543 128.356C344.121 129.215 342.861 130.4 341.765 131.911C340.699 133.422 339.839 135.2 339.187 137.244C338.536 139.259 338.21 141.407 338.21 143.689C338.21 147.007 338.55 150.119 339.232 153.022C339.943 155.926 340.965 158.459 342.299 160.622C343.661 162.785 345.306 164.504 347.232 165.778C349.187 167.022 351.41 167.644 353.899 167.644Z" fill="#4F4F4F"/>
</svg>
