<svg viewBox="0 0 385 176" fill="none" xmlns="http://www.w3.org/2000/svg">
<path d="M31.0666 8.73333L58.8 69H48.7111L39.7333 49.3555H14.4444L5.15551 69H0.177734L28.5777 8.73333H31.0666ZM16.1777 45.5333H37.9111L27.2 22.2L16.1777 45.5333Z" fill="#4F4F4F"/>
<path d="M72.5843 79.7555C72.9399 79.9037 73.3251 80.0963 73.7399 80.3333C74.1843 80.5704 74.6584 80.7926 75.1621 81C75.6954 81.237 76.2732 81.4296 76.8954 81.5778C77.5177 81.7259 78.214 81.8 78.9843 81.8C79.9325 81.8 80.8214 81.5333 81.651 81C82.4806 80.4667 83.2362 79.8 83.9177 79C84.5991 78.2 85.2066 77.3259 85.7399 76.3778C86.2732 75.4296 86.7177 74.5407 87.0732 73.7111L90.1399 66.8667L66.8954 23.4889H77.1621L94.6732 56.3778L109.029 23.4889H113.873L90.6288 77C89.651 79.2222 88.5251 81.1481 87.251 82.7778C86.0066 84.4074 84.6732 85.7556 83.251 86.8222C81.8288 87.8889 80.3621 88.6741 78.851 89.1778C77.3399 89.7111 75.8732 89.9778 74.451 89.9778C73.3843 89.9778 72.3473 89.8148 71.3399 89.4889C70.3325 89.163 69.488 88.7333 68.8065 88.2L72.5843 79.7555Z" fill="#4F4F4F"/>
<path d="M156.611 69C155.426 68.4074 154.418 67.5778 153.589 66.5111C152.789 65.4148 152.389 64.1704 152.389 62.7778C151.322 63.5778 150.27 64.4074 149.233 65.2667C148.226 66.1259 147.115 66.9111 145.9 67.6222C144.715 68.3037 143.381 68.8667 141.9 69.3111C140.448 69.7555 138.759 69.9778 136.833 69.9778C135.056 69.9778 133.441 69.6815 131.989 69.0889C130.567 68.5259 129.352 67.7407 128.344 66.7333C127.367 65.7259 126.596 64.5259 126.033 63.1333C125.5 61.7407 125.233 60.2444 125.233 58.6444C125.233 56.6889 125.618 54.9259 126.389 53.3555C127.159 51.7852 128.211 50.3926 129.544 49.1778C130.907 47.9333 132.478 46.837 134.256 45.8889C136.033 44.9111 137.93 44.0518 139.944 43.3111C141.959 42.5407 144.033 41.8593 146.167 41.2667C148.3 40.6741 150.374 40.1259 152.389 39.6222V36.7778C152.389 34.7037 152.241 32.9555 151.944 31.5333C151.648 30.1111 151.189 28.9704 150.567 28.1111C149.944 27.2222 149.144 26.6 148.167 26.2444C147.218 25.8593 146.078 25.6667 144.744 25.6667C143.47 25.6667 142.3 25.9185 141.233 26.4222C140.167 26.9259 139.218 27.6074 138.389 28.4667C137.589 29.2963 136.922 30.2889 136.389 31.4444C135.885 32.5704 135.544 33.7704 135.367 35.0444H127.1C127.337 33.0889 128.004 31.3407 129.1 29.8C130.226 28.2593 131.633 26.9704 133.322 25.9333C135.011 24.8667 136.922 24.0518 139.056 23.4889C141.218 22.9259 143.456 22.6444 145.767 22.6444C148.73 22.6444 151.218 22.9407 153.233 23.5333C155.248 24.0963 156.863 24.8963 158.078 25.9333C159.293 26.9704 160.152 28.2444 160.656 29.7555C161.189 31.237 161.456 32.8815 161.456 34.6889V62.7778C161.456 64.1704 161.856 65.4148 162.656 66.5111C163.485 67.5778 164.493 68.4074 165.678 69H156.611ZM152.389 42.5111C151.085 42.9259 149.737 43.4 148.344 43.9333C146.952 44.4667 145.589 45.0741 144.256 45.7555C142.922 46.4074 141.648 47.1185 140.433 47.8889C139.218 48.6593 138.152 49.4889 137.233 50.3778C136.315 51.2667 135.589 52.2 135.056 53.1778C134.522 54.1556 134.256 55.1778 134.256 56.2444C134.256 57.3704 134.463 58.437 134.878 59.4444C135.293 60.4222 135.841 61.2963 136.522 62.0667C137.204 62.8074 137.989 63.4 138.878 63.8444C139.767 64.2593 140.685 64.4667 141.633 64.4667C142.641 64.4667 143.604 64.3333 144.522 64.0667C145.441 63.8 146.33 63.4444 147.189 63C148.048 62.5259 148.907 61.9926 149.767 61.4C150.626 60.8074 151.5 60.1704 152.389 59.4889V42.5111Z" fill="#4F4F4F"/>
<path d="M193.89 41.8444L216.735 23.4889H222.601L202.201 40.0667L227.401 69H215.49L193.89 44.1111V69H184.824V2.86666L191.312 0.288879H193.89V41.8444Z" fill="#4F4F4F"/>
<path d="M268.139 69C266.954 68.4074 265.947 67.5778 265.117 66.5111C264.317 65.4148 263.917 64.1704 263.917 62.7778C262.85 63.5778 261.798 64.4074 260.761 65.2667C259.754 66.1259 258.643 66.9111 257.428 67.6222C256.243 68.3037 254.91 68.8667 253.428 69.3111C251.976 69.7555 250.287 69.9778 248.361 69.9778C246.584 69.9778 244.969 69.6815 243.517 69.0889C242.095 68.5259 240.88 67.7407 239.873 66.7333C238.895 65.7259 238.124 64.5259 237.561 63.1333C237.028 61.7407 236.761 60.2444 236.761 58.6444C236.761 56.6889 237.147 54.9259 237.917 53.3555C238.687 51.7852 239.739 50.3926 241.073 49.1778C242.435 47.9333 244.006 46.837 245.784 45.8889C247.561 44.9111 249.458 44.0518 251.473 43.3111C253.487 42.5407 255.561 41.8593 257.695 41.2667C259.828 40.6741 261.902 40.1259 263.917 39.6222V36.7778C263.917 34.7037 263.769 32.9555 263.473 31.5333C263.176 30.1111 262.717 28.9704 262.095 28.1111C261.473 27.2222 260.673 26.6 259.695 26.2444C258.747 25.8593 257.606 25.6667 256.273 25.6667C254.998 25.6667 253.828 25.9185 252.761 26.4222C251.695 26.9259 250.747 27.6074 249.917 28.4667C249.117 29.2963 248.45 30.2889 247.917 31.4444C247.413 32.5704 247.073 33.7704 246.895 35.0444H238.628C238.865 33.0889 239.532 31.3407 240.628 29.8C241.754 28.2593 243.161 26.9704 244.85 25.9333C246.539 24.8667 248.45 24.0518 250.584 23.4889C252.747 22.9259 254.984 22.6444 257.295 22.6444C260.258 22.6444 262.747 22.9407 264.761 23.5333C266.776 24.0963 268.391 24.8963 269.606 25.9333C270.821 26.9704 271.68 28.2444 272.184 29.7555C272.717 31.237 272.984 32.8815 272.984 34.6889V62.7778C272.984 64.1704 273.384 65.4148 274.184 66.5111C275.013 67.5778 276.021 68.4074 277.206 69H268.139ZM263.917 42.5111C262.613 42.9259 261.265 43.4 259.873 43.9333C258.48 44.4667 257.117 45.0741 255.784 45.7555C254.45 46.4074 253.176 47.1185 251.961 47.8889C250.747 48.6593 249.68 49.4889 248.761 50.3778C247.843 51.2667 247.117 52.2 246.584 53.1778C246.05 54.1556 245.784 55.1778 245.784 56.2444C245.784 57.3704 245.991 58.437 246.406 59.4444C246.821 60.4222 247.369 61.2963 248.05 62.0667C248.732 62.8074 249.517 63.4 250.406 63.8444C251.295 64.2593 252.213 64.4667 253.161 64.4667C254.169 64.4667 255.132 64.3333 256.05 64.0667C256.969 63.8 257.858 63.4444 258.717 63C259.576 62.5259 260.435 61.9926 261.295 61.4C262.154 60.8074 263.028 60.1704 263.917 59.4889V42.5111Z" fill="#4F4F4F"/>
<path d="M17.9111 146.733V175H7.99996V116.067H17.9111V142.911H47.5111V116.067H57.4222V175H47.5111V146.733H17.9111Z" fill="#4F4F4F"/>
<path d="M100.046 175.978C96.5502 175.978 93.3354 175.37 90.402 174.156C87.4687 172.941 84.9354 171.296 82.802 169.222C80.6687 167.119 78.9946 164.674 77.7798 161.889C76.5946 159.074 76.002 156.067 76.002 152.867C76.002 149.519 76.5946 146.378 77.7798 143.444C78.9946 140.481 80.6687 137.904 82.802 135.711C84.9354 133.519 87.4687 131.8 90.402 130.556C93.3354 129.281 96.5502 128.644 100.046 128.644C103.513 128.644 106.698 129.222 109.602 130.378C112.535 131.533 115.069 133.119 117.202 135.133C119.335 137.148 120.995 139.519 122.18 142.244C123.395 144.941 124.002 147.844 124.002 150.956C124.002 154.393 123.395 157.637 122.18 160.689C120.995 163.711 119.335 166.363 117.202 168.644C115.069 170.896 112.535 172.689 109.602 174.022C106.698 175.326 103.513 175.978 100.046 175.978ZM101.78 172.644C103.558 172.644 105.187 172.185 106.669 171.267C108.15 170.348 109.424 169.119 110.491 167.578C111.558 166.007 112.387 164.2 112.98 162.156C113.572 160.111 113.869 157.948 113.869 155.667C113.869 152.378 113.587 149.296 113.024 146.422C112.461 143.548 111.543 141.044 110.269 138.911C108.995 136.778 107.335 135.104 105.291 133.889C103.246 132.644 100.758 132.022 97.8243 132.022C96.3132 132.022 94.8465 132.467 93.4243 133.356C92.002 134.215 90.7428 135.4 89.6465 136.911C88.5798 138.422 87.7206 140.2 87.0687 142.244C86.4169 144.259 86.0909 146.407 86.0909 148.689C86.0909 152.007 86.4317 155.119 87.1132 158.022C87.8243 160.926 88.8465 163.459 90.1798 165.622C91.5428 167.785 93.1872 169.504 95.1132 170.778C97.0687 172.022 99.2909 172.644 101.78 172.644Z" fill="#4F4F4F"/>
<path d="M156.215 172.822C157.429 172.822 158.555 172.644 159.592 172.289C160.629 171.904 161.518 171.4 162.259 170.778C163.029 170.156 163.622 169.444 164.037 168.644C164.452 167.815 164.659 166.97 164.659 166.111C164.659 164.719 164.303 163.504 163.592 162.467C162.911 161.43 161.992 160.511 160.837 159.711C159.711 158.881 158.422 158.126 156.97 157.444C155.518 156.763 154.037 156.067 152.526 155.356C151.015 154.615 149.533 153.844 148.081 153.044C146.629 152.215 145.326 151.252 144.17 150.156C143.044 149.059 142.126 147.8 141.415 146.378C140.733 144.926 140.392 143.237 140.392 141.311C140.392 139.504 140.777 137.83 141.548 136.289C142.318 134.719 143.385 133.37 144.748 132.244C146.14 131.119 147.785 130.244 149.681 129.622C151.577 128.97 153.652 128.644 155.903 128.644C157.415 128.644 158.822 128.748 160.126 128.956C161.429 129.163 162.703 129.563 163.948 130.156C165.222 130.748 166.481 131.607 167.726 132.733C168.97 133.83 170.289 135.267 171.681 137.044L168.348 140.022C166.629 137.207 164.703 135.119 162.57 133.756C160.466 132.363 158.215 131.667 155.815 131.667C154.511 131.667 153.326 131.83 152.259 132.156C151.192 132.452 150.274 132.881 149.503 133.444C148.763 133.978 148.17 134.615 147.726 135.356C147.311 136.096 147.103 136.881 147.103 137.711C147.103 139.074 147.474 140.259 148.215 141.267C148.985 142.274 149.992 143.193 151.237 144.022C152.481 144.822 153.889 145.563 155.459 146.244C157.059 146.926 158.674 147.622 160.303 148.333C161.963 149.044 163.578 149.815 165.148 150.644C166.748 151.474 168.17 152.437 169.415 153.533C170.659 154.6 171.652 155.844 172.392 157.267C173.163 158.689 173.548 160.348 173.548 162.244C173.548 164.17 173.192 165.978 172.481 167.667C171.77 169.326 170.689 170.778 169.237 172.022C167.815 173.237 166.022 174.2 163.859 174.911C161.696 175.622 159.148 175.978 156.215 175.978C154.881 175.978 153.503 175.874 152.081 175.667C150.689 175.459 149.281 175.059 147.859 174.467C146.437 173.844 145.015 172.985 143.592 171.889C142.17 170.793 140.777 169.356 139.415 167.578L143.103 164.244C144.2 165.785 145.252 167.104 146.259 168.2C147.266 169.267 148.289 170.156 149.326 170.867C150.392 171.548 151.474 172.052 152.57 172.378C153.696 172.674 154.911 172.822 156.215 172.822Z" fill="#4F4F4F"/>
<path d="M200.976 137.844C203.672 134.763 206.517 132.467 209.509 130.956C212.502 129.415 215.524 128.644 218.576 128.644C220.176 128.644 221.657 129 223.02 129.711C224.413 130.422 225.628 131.4 226.665 132.644C227.702 133.889 228.517 135.356 229.109 137.044C229.702 138.704 229.998 140.481 229.998 142.378V175H220.976V143.933C220.976 140.911 220.295 138.63 218.932 137.089C217.569 135.519 215.82 134.733 213.687 134.733C212.739 134.733 211.732 134.896 210.665 135.222C209.598 135.548 208.517 136.007 207.42 136.6C206.324 137.163 205.228 137.844 204.132 138.644C203.035 139.444 201.983 140.333 200.976 141.311V175H191.909V108.867L198.398 106.289H200.976V137.844Z" fill="#4F4F4F"/>
<path d="M251.483 131.222L257.839 128.644H260.461V175H251.483V131.222ZM250.772 112.067C250.772 111.356 250.905 110.689 251.172 110.067C251.439 109.444 251.809 108.896 252.283 108.422C252.757 107.948 253.305 107.578 253.927 107.311C254.55 107.044 255.216 106.911 255.927 106.911C256.639 106.911 257.305 107.044 257.927 107.311C258.55 107.578 259.098 107.948 259.572 108.422C260.046 108.896 260.416 109.444 260.683 110.067C260.95 110.689 261.083 111.356 261.083 112.067C261.083 112.778 260.95 113.444 260.683 114.067C260.416 114.689 260.046 115.237 259.572 115.711C259.098 116.185 258.55 116.556 257.927 116.822C257.305 117.089 256.639 117.222 255.927 117.222C255.216 117.222 254.55 117.089 253.927 116.822C253.305 116.556 252.757 116.185 252.283 115.711C251.809 115.237 251.439 114.689 251.172 114.067C250.905 113.444 250.772 112.778 250.772 112.067Z" fill="#4F4F4F"/>
<path d="M287.589 128.644H290.167V137.844C292.922 134.763 295.781 132.467 298.744 130.956C301.707 129.415 304.715 128.644 307.767 128.644C309.367 128.644 310.848 129 312.211 129.711C313.604 130.422 314.818 131.4 315.856 132.644C316.893 133.889 317.707 135.356 318.3 137.044C318.893 138.704 319.189 140.481 319.189 142.378V175H310.167V143.933C310.167 142.422 309.989 141.104 309.633 139.978C309.278 138.822 308.774 137.859 308.122 137.089C307.47 136.319 306.7 135.741 305.811 135.356C304.952 134.941 303.989 134.733 302.922 134.733C301.974 134.733 300.967 134.896 299.9 135.222C298.833 135.548 297.737 136.007 296.611 136.6C295.515 137.163 294.418 137.844 293.322 138.644C292.226 139.444 291.174 140.333 290.167 141.311V175H281.1V131.178L287.589 128.644Z" fill="#4F4F4F"/>
<path d="M360.14 175.978C356.644 175.978 353.429 175.37 350.496 174.156C347.562 172.941 345.029 171.296 342.896 169.222C340.762 167.119 339.088 164.674 337.874 161.889C336.688 159.074 336.096 156.067 336.096 152.867C336.096 149.519 336.688 146.378 337.874 143.444C339.088 140.481 340.762 137.904 342.896 135.711C345.029 133.519 347.562 131.8 350.496 130.556C353.429 129.281 356.644 128.644 360.14 128.644C363.607 128.644 366.792 129.222 369.696 130.378C372.629 131.533 375.162 133.119 377.296 135.133C379.429 137.148 381.088 139.519 382.274 142.244C383.488 144.941 384.096 147.844 384.096 150.956C384.096 154.393 383.488 157.637 382.274 160.689C381.088 163.711 379.429 166.363 377.296 168.644C375.162 170.896 372.629 172.689 369.696 174.022C366.792 175.326 363.607 175.978 360.14 175.978ZM361.874 172.644C363.651 172.644 365.281 172.185 366.762 171.267C368.244 170.348 369.518 169.119 370.585 167.578C371.651 166.007 372.481 164.2 373.074 162.156C373.666 160.111 373.962 157.948 373.962 155.667C373.962 152.378 373.681 149.296 373.118 146.422C372.555 143.548 371.637 141.044 370.362 138.911C369.088 136.778 367.429 135.104 365.385 133.889C363.34 132.644 360.851 132.022 357.918 132.022C356.407 132.022 354.94 132.467 353.518 133.356C352.096 134.215 350.837 135.4 349.74 136.911C348.674 138.422 347.814 140.2 347.162 142.244C346.511 144.259 346.185 146.407 346.185 148.689C346.185 152.007 346.525 155.119 347.207 158.022C347.918 160.926 348.94 163.459 350.274 165.622C351.637 167.785 353.281 169.504 355.207 170.778C357.162 172.022 359.385 172.644 361.874 172.644Z" fill="#4F4F4F"/>
</svg>
