<svg viewBox="0 0 10 142" fill="none" xmlns="http://www.w3.org/2000/svg">
<path d="M1 1C1 8.00246 9.00001 8.00247 9.00001 15.0049C9 22.0074 0.999999 22.0074 0.999999 29.0099C0.999998 36.0123 9 36.0123 9 42.9984C9 50.0011 0.999998 50.001 0.999998 56.9869C0.999997 63.9895 9 63.9895 9 70.9754C9 77.978 0.999997 77.978 0.999996 84.9801C0.999996 91.9827 9 91.9827 9 98.9853C9 105.987 0.999995 105.987 0.999995 112.99C0.999995 119.993 9 119.993 9 126.995C9 133.997 0.999994 133.997 0.999994 141" stroke="#EE864C" stroke-width="2" stroke-miterlimit="10" stroke-linecap="square"/>
</svg>
