<svg viewBox="0 0 108 9" fill="none" xmlns="http://www.w3.org/2000/svg">
<path d="M107 1.00002C101.698 1.00001 101.698 7.05717 96.3963 7.05717C91.0944 7.05717 91.0944 1.00001 85.7925 1.00001C80.4907 1.00001 80.4907 7.05717 75.2012 7.05717C69.8992 7.05716 69.8992 1.00001 64.6099 1.00001C59.3079 1.00001 59.3079 7.05716 54.0187 7.05716C48.7167 7.05716 48.7167 1.00001 43.4151 1.00001C38.1131 1.00001 38.1131 7.05716 32.8111 7.05716C27.5095 7.05716 27.5095 1.00001 22.2075 1.00001C16.9056 1.00001 16.9056 7.05716 11.6036 7.05716C6.30199 7.05716 6.30199 1.00001 1 1.00001" stroke="#F4732B" stroke-width="2" stroke-miterlimit="10" stroke-linecap="square"/>
</svg>
